<?xml version="1.0" encoding="UTF-8"?>
<svg version="1.1" xmlns="http://www.w3.org/2000/svg" width="500" height="500">
<path d="M0 0 C1.44474197 0.00131424 1.44474197 0.00131424 2.91867065 0.00265503 C58.24972136 0.16795552 110.92282524 18.50403937 154.6875 52.375 C155.62722656 53.10074219 156.56695312 53.82648437 157.53515625 54.57421875 C202.46666114 90.37384194 233.00108994 140.42892535 245.6875 196.375 C245.85330566 197.09220215 246.01911133 197.8094043 246.18994141 198.54833984 C250.0576644 215.51896116 251.1012501 232.35160601 251.0625 249.6875 C251.06162384 250.65066132 251.06074768 251.61382263 251.05984497 252.60617065 C250.89454448 307.93722136 232.55846063 360.61032524 198.6875 404.375 C197.96175781 405.31472656 197.23601562 406.25445312 196.48828125 407.22265625 C160.68865806 452.15416114 110.63357465 482.68858994 54.6875 495.375 C53.97029785 495.54080566 53.2530957 495.70661133 52.51416016 495.87744141 C35.54353884 499.7451644 18.71089399 500.7887501 1.375 500.75 C0.41183868 500.74912384 -0.55132263 500.74824768 -1.54367065 500.74734497 C-56.87472136 500.58204448 -109.54782524 482.24596063 -153.3125 448.375 C-154.25222656 447.64925781 -155.19195312 446.92351562 -156.16015625 446.17578125 C-201.09166114 410.37615806 -231.62608994 360.32107465 -244.3125 304.375 C-244.47830566 303.65779785 -244.64411133 302.9405957 -244.81494141 302.20166016 C-248.6826644 285.23103884 -249.7262501 268.39839399 -249.6875 251.0625 C-249.68662384 250.09933868 -249.68574768 249.13617737 -249.68484497 248.14382935 C-249.51954448 192.81277864 -231.18346063 140.13967476 -197.3125 96.375 C-196.58675781 95.43527344 -195.86101562 94.49554688 -195.11328125 93.52734375 C-159.31365806 48.59583886 -109.25857465 18.06141006 -53.3125 5.375 C-52.59529785 5.20919434 -51.8780957 5.04338867 -51.13916016 4.87255859 C-34.16853884 1.0048356 -17.33589399 -0.0387501 0 0 Z " fill="#FEFEFE" transform="translate(249.3125,-0.375)"/>
<path d="M0 0 C6.93 0 13.86 0 21 0 C21 21.12 21 42.24 21 64 C33.87 64 46.74 64 60 64 C60 70.93 60 77.86 60 85 C47.13 85 34.26 85 21 85 C19.73343319 102.4278999 19.73343319 102.4278999 25.75 118.1875 C27.48123388 119.81190141 29.23320441 121.41435059 31 123 C33.16790787 125.47445915 35.20402216 128.04942441 37.25 130.625 C38.35921261 131.9910173 39.46859003 133.35690077 40.578125 134.72265625 C44.11598679 139.12055636 47.57128219 143.57917082 51 148.0625 C51.52754883 148.75230957 52.05509766 149.44211914 52.59863281 150.15283203 C55.81325405 154.38037775 58.93285289 158.66427182 62 163 C60.25716602 166.97799395 57.6772961 170.31642937 55.0625 173.75 C54.61970703 174.35199219 54.17691406 174.95398438 53.72070312 175.57421875 C52.55376265 177.1081107 51.28263586 178.56145217 50 180 C49.01 180 48.02 180 47 180 C46.61972656 179.29101562 46.23945313 178.58203125 45.84765625 177.8515625 C38.56630422 164.69095687 30.31869662 152.72271247 22 140 C21.67 184.88 21.34 229.76 21 276 C14.07 276 7.14 276 0 276 C-0.33 229.47 -0.66 182.94 -1 135 C-4.3 144.24 -7.6 153.48 -11 163 C-18.55385578 182.64002503 -27.20019165 202.1313784 -40 219 C-43.29456697 215.88836586 -45.37892847 212.36602887 -47.6875 208.5 C-48.10322266 207.82324219 -48.51894531 207.14648438 -48.94726562 206.44921875 C-52 201.36634083 -52 201.36634083 -52 198 C-51.09620818 196.60922388 -50.18032282 195.22493486 -49.20776367 193.88134766 C-26.44753646 162.41160432 -13.32386641 123.29546564 -4 86 C-17.53 86 -31.06 86 -45 86 C-45 78.74 -45 71.48 -45 64 C-30.15 64 -15.3 64 0 64 C0 42.88 0 21.76 0 0 Z " fill="#020202" transform="translate(161,105)"/>
<path d="M0 0 C6.03871362 0.5651998 11.70549035 1.50904758 17.5625 3.0625 C18.28501953 3.24876953 19.00753906 3.43503906 19.75195312 3.62695312 C21.50273047 4.07914065 23.25158525 4.53876175 25 5 C26.17833956 8.39729067 25.85667526 10.01519752 24.375 13.25 C22.13383296 18.46904989 20.4536232 23.76503117 18.83935547 29.20214844 C17.50701633 33.6169611 15.82834286 37.7598006 14 42 C12.98876041 45.1259992 12.07470886 48.27037681 11.16015625 51.42578125 C10.00110821 54.99658581 8.65961283 58.42967623 7.24682617 61.90551758 C5.71817801 65.69945051 4.23654903 69.51061044 2.7578125 73.32421875 C2.4647673 74.07911087 2.17172211 74.83400299 1.86979675 75.61177063 C0.65053565 78.75316632 -0.56778759 81.89492493 -1.78564453 85.03686523 C-4.92076531 93.12311073 -8.06209378 101.20700475 -11.2578125 109.26953125 C-11.71559082 110.42686768 -12.17336914 111.5842041 -12.64501953 112.77661133 C-13.96960685 115.92769715 -15.43517065 118.9620687 -17 122 C-16.17951172 121.91959473 -15.35902344 121.83918945 -14.51367188 121.75634766 C3.16207031 120.04964032 20.82435891 118.67960856 38.5625 117.8125 C39.42053223 117.76998108 40.27856445 117.72746216 41.16259766 117.68365479 C43.63037924 117.56283483 46.09831097 117.44625015 48.56640625 117.33203125 C49.64741356 117.28069283 49.64741356 117.28069283 50.7502594 117.22831726 C55.83737483 117.00419127 60.90794894 116.9734023 66 117 C58.95560817 103.13017386 51.5813175 89.57855725 43.42675781 76.32958984 C40.92086175 72.23799843 38.46209424 68.11804943 36 64 C38.58090767 62.68253667 41.16450458 61.37090383 43.75 60.0625 C44.47960937 59.68931641 45.20921875 59.31613281 45.9609375 58.93164062 C46.66992188 58.57392578 47.37890625 58.21621094 48.109375 57.84765625 C48.75874023 57.51773682 49.40810547 57.18781738 50.07714844 56.84790039 C52.03293079 55.98547884 53.91540694 55.45625821 56 55 C72.77426576 80.35320418 88.70326345 106.54741941 101.3125 134.25 C101.67972168 135.05348877 102.04694336 135.85697754 102.42529297 136.68481445 C104.23590943 140.78985046 105.50484764 144.49339589 106 149 C102.87852455 150.67333158 99.75226502 152.33751716 96.625 154 C95.73554688 154.47695313 94.84609375 154.95390625 93.9296875 155.4453125 C93.07890625 155.89648438 92.228125 156.34765625 91.3515625 156.8125 C90.56604004 157.23144531 89.78051758 157.65039062 88.97119141 158.08203125 C87 159 87 159 85 159 C83.66108439 155.71057634 82.32982297 152.41810891 81 149.125 C80.6184375 148.18785156 80.236875 147.25070312 79.84375 146.28515625 C79.4828125 145.38925781 79.121875 144.49335938 78.75 143.5703125 C78.41484375 142.74289551 78.0796875 141.91547852 77.734375 141.06298828 C77 139 77 139 77 137 C76.13576416 137.12624756 75.27152832 137.25249512 74.38110352 137.38256836 C61.60536333 139.12333961 48.8050999 139.8429334 35.9375 140.5625 C32.62173823 140.75055813 29.30608918 140.94020673 25.99061584 141.13328552 C23.94508913 141.25217014 21.89938869 141.36811583 19.85350037 141.48060608 C14.84890575 141.76903165 9.9607086 142.24730036 5 143 C3.51863735 143.10006904 2.03504989 143.17357801 0.55078125 143.2109375 C-0.27953613 143.23744385 -1.10985352 143.2639502 -1.96533203 143.29125977 C-2.86364746 143.31889404 -3.76196289 143.34652832 -4.6875 143.375 C-16.90326106 143.81440853 -29.05257972 144.86669987 -41.22143555 145.98388672 C-58.50756858 147.5400069 -58.50756858 147.5400069 -67 147 C-68.63653302 145.36346698 -68.45793638 143.34178841 -68.75390625 141.08984375 C-68.95209961 139.60581055 -68.95209961 139.60581055 -69.15429688 138.09179688 C-69.28900391 137.05087891 -69.42371094 136.00996094 -69.5625 134.9375 C-69.70107422 133.89271484 -69.83964844 132.84792969 -69.98242188 131.77148438 C-70.32539267 129.18146356 -70.66440631 126.59098531 -71 124 C-60.64523146 123.29798179 -50.38324014 122.85190307 -40 123 C-39.59652344 121.74832031 -39.19304687 120.49664062 -38.77734375 119.20703125 C-37.26579941 114.67239823 -35.5519391 110.23954441 -33.79101562 105.796875 C-20.17970772 71.34663306 -9.67052514 35.73004552 0 0 Z " fill="#030303" transform="translate(285,222)"/>
<path d="M0 0 C8.13709505 0.71378027 16.01731928 2.32773882 24 4 C22.88666624 11.8431871 20.78773419 19.22924862 18.35546875 26.7421875 C17.19653708 30.33097663 16.14579567 33.94253183 15.11914062 37.57104492 C13.25491535 44.13185352 11.17765342 50.42031845 8.4296875 56.67578125 C7.31625695 59.26465938 6.26985881 61.85188359 5.2578125 64.48046875 C-3.21988161 86.44283185 -13.55698742 108.97436757 -29 127 C-33.53266384 124.01541519 -37.96718559 120.91552851 -42.375 117.75 C-43.01566406 117.29109375 -43.65632812 116.8321875 -44.31640625 116.359375 C-45.87823005 115.24045645 -47.43920419 114.12035206 -49 113 C-48.63503418 112.52691406 -48.27006836 112.05382812 -47.89404297 111.56640625 C-38.05923491 98.65881038 -29.74612744 84.74898503 -23 70 C-22.64341309 69.23026855 -22.28682617 68.46053711 -21.91943359 67.66748047 C-12.0901323 46.26627527 -4.33691541 23.19108453 0 0 Z " fill="#030303" transform="translate(263,111)"/>
<path d="M0 0 C0.27561768 0.86351074 0.55123535 1.72702148 0.83520508 2.61669922 C12.60840963 39.27842421 26.78292039 74.25289085 48.8293457 106.07421875 C50 108 50 108 50 110 C48.56640625 111.41015625 48.56640625 111.41015625 46.5625 113.0625 C41.77658299 117.12068366 37.3885623 121.52000931 33 126 C27.78380266 124.26126755 25.81074044 118.55864866 23.14892578 113.97167969 C22.03250908 112.05578906 20.89019985 110.15725557 19.74609375 108.2578125 C6.84558589 86.37846486 -2.41147391 62.06928353 -10.86523438 38.19726562 C-12.02390386 34.93264953 -13.20600585 31.67715414 -14.390625 28.421875 C-15.13666969 26.3441995 -15.88151656 24.2660934 -16.625 22.1875 C-16.96837402 21.24447021 -17.31174805 20.30144043 -17.66552734 19.32983398 C-19.27983357 14.73912434 -20.44131913 10.94440881 -20 6 C-17.04329782 4.99513105 -14.08438423 3.99693976 -11.125 3 C-10.28324219 2.71382813 -9.44148438 2.42765625 -8.57421875 2.1328125 C-7.76855469 1.86210938 -6.96289062 1.59140625 -6.1328125 1.3125 C-5.38918457 1.06113281 -4.64555664 0.80976562 -3.87939453 0.55078125 C-2 0 -2 0 0 0 Z " fill="#030303" transform="translate(341,110)"/>
</svg>
