<?xml version="1.0" encoding="UTF-8"?>
<svg version="1.1" xmlns="http://www.w3.org/2000/svg" width="512" height="512">
<path d="M0 0 C0.73702148 0.35819824 1.47404297 0.71639648 2.23339844 1.08544922 C33.35162599 16.419984 62.70235759 39.55204832 84 67 C85.01789143 68.2776129 86.03614582 69.55493668 87.0546875 70.83203125 C94.88964276 80.75335513 101.76009426 91.00835742 108 102 C108.68425049 103.19786133 108.68425049 103.19786133 109.38232422 104.41992188 C121.36670012 125.64531286 129.75201368 148.21558686 135 172 C135.19819336 172.8854248 135.39638672 173.77084961 135.60058594 174.68310547 C147.64828953 229.95423133 139.65829391 288.33630949 115 339 C114.64180176 339.73702148 114.28360352 340.47404297 113.91455078 341.23339844 C98.56736823 372.37729199 75.43013874 401.64615782 48 423 C46.7212575 424.01941 45.4426186 425.03894997 44.1640625 426.05859375 C34.24339679 433.89131218 23.99002327 440.76101354 13 447 C11.80213867 447.68425049 11.80213867 447.68425049 10.58007812 448.38232422 C-48.22813659 481.58688339 -118.29989972 487.93150471 -183 470 C-216.03030311 460.64716581 -246.74625273 444.0482481 -273 422 C-273.78189697 421.3512793 -273.78189697 421.3512793 -274.57958984 420.68945312 C-286.91186479 410.44125884 -298.12409883 399.68611695 -308 387 C-309.01941 385.7212575 -310.03894997 384.4426186 -311.05859375 383.1640625 C-318.89131218 373.24339679 -325.76101354 362.99002327 -332 352 C-332.68425049 350.80213867 -332.68425049 350.80213867 -333.38232422 349.58007812 C-366.59606453 290.75560281 -372.93698357 220.71986901 -355 156 C-344.96738462 120.56899371 -326.59254364 87.37728755 -302 60 C-301.53464844 59.47970215 -301.06929687 58.9594043 -300.58984375 58.42333984 C-291.65057931 48.45191919 -282.4754331 39.37145644 -272 31 C-271.24332031 30.36449219 -270.48664063 29.72898438 -269.70703125 29.07421875 C-195.12377265 -32.92873117 -86.066548 -41.88905733 0 0 Z " fill="#168CE1" transform="translate(368,29)"/>
<path d="M0 0 C4.89942826 0.47556527 9.38283432 3.80530961 13.61328125 6.11328125 C25.86001693 11.81416478 37.69350404 12.55070977 50.9375 12.25 C52.50713818 12.22986603 54.07680186 12.21162767 55.64648438 12.1953125 C59.43163866 12.15194952 63.21552328 12.08332322 67 12 C67.00808685 12.64701874 67.01617371 13.29403748 67.02450562 13.96066284 C67.11035872 20.67629128 67.20985315 27.39161796 67.31738281 34.10693359 C67.35573873 36.61534571 67.39057975 39.12381408 67.421875 41.63232422 C67.46738209 45.23165029 67.5254 48.83058683 67.5859375 52.4296875 C67.60326431 54.12035843 67.60326431 54.12035843 67.62094116 55.84518433 C67.6507457 57.40657639 67.6507457 57.40657639 67.68115234 58.99951172 C67.70113785 60.37851151 67.70113785 60.37851151 67.7215271 61.78536987 C67.79576051 64.20466952 67.79576051 64.20466952 70 66 C72.31 66 74.62 66 77 66 C77.33 57.42 77.66 48.84 78 40 C88.59677419 41.17741935 88.59677419 41.17741935 93 46 C95.99879907 51.19791839 96.96824953 56.10443622 96 62 C93.46759618 66.9710149 90.01138866 70.49430567 85 73 C83.29297265 73.06996014 81.58331997 73.08440154 79.875 73.0625 C78.50988281 73.04896484 78.50988281 73.04896484 77.1171875 73.03515625 C76.06917969 73.01775391 76.06917969 73.01775391 75 73 C75.04640625 73.64324219 75.0928125 74.28648437 75.140625 74.94921875 C75.73917368 89.93431254 69.40879115 103.33686349 60.13671875 114.78125 C58.03774671 116.96080415 56.09919566 118.24108642 53.5 119.75 C51.41023337 120.99554656 51.41023337 120.99554656 50 123 C49.31876233 127.73673064 49.53143425 132.24926393 50 137 C50.98097656 137.3403125 51.96195313 137.680625 52.97265625 138.03125 C68.6714573 143.61008171 95.05191242 154.10382484 103 170 C104.41478638 170.00616333 104.41478638 170.00616333 105.8581543 170.01245117 C109.37193676 170.03948859 112.88398682 170.08862841 116.3972168 170.15258789 C117.91501168 170.17572451 119.43296613 170.19015348 120.95092773 170.19555664 C123.1388643 170.20487922 125.32430687 170.24593151 127.51171875 170.29296875 C128.82615967 170.3086792 130.14060059 170.32438965 131.49487305 170.34057617 C135.85238475 171.16036019 137.34689967 172.49953831 140 176 C142.478006 184.52658889 137.97688213 195.76607447 135.9152832 204.19848633 C135.40890976 206.28712671 134.92065041 208.37944041 134.43359375 210.47265625 C134.13509521 211.70250244 133.83659668 212.93234863 133.52905273 214.19946289 C132.13069166 224.24481908 135.50798393 236.55056487 137 246 C137 262.5 137 279 137 296 C56.48 296 -24.04 296 -107 296 C-107 246 -107 246 -104 227 C-103.03873866 218.6392815 -103.03873866 218.6392815 -104.1796875 210.91796875 C-104.44910156 209.65662109 -104.71851563 208.39527344 -104.99609375 207.09570312 C-105.28880113 205.79291 -105.58177232 204.49017612 -105.875 203.1875 C-106.16142343 201.86550829 -106.44658892 200.54324338 -106.73046875 199.22070312 C-108.08017049 192.96138124 -108.08017049 192.96138124 -109.57324219 186.73535156 C-110.08422303 184.6575187 -110.27867352 182.70020694 -110.375 180.5625 C-110.42398438 179.82128906 -110.47296875 179.08007812 -110.5234375 178.31640625 C-109.7110609 174.72133665 -107.81613482 173.29773362 -105 171 C-101.66943359 170.51513672 -101.66943359 170.51513672 -97.8984375 170.6796875 C-96.50653708 170.702232 -95.1146071 170.72300735 -93.72265625 170.7421875 C-91.55549865 170.7997961 -89.3922913 170.87413524 -87.22705078 170.98242188 C-77.88275764 171.52607332 -77.88275764 171.52607332 -69.68920898 167.62060547 C-66.88569587 164.9515659 -64.48494559 161.96401277 -62 159 C-51.37084032 150.17626426 -33.18320624 138 -19 138 C-18.41254572 128.86428474 -18.41254572 128.86428474 -21.7890625 120.83203125 C-23.33791468 119.75422175 -24.91696418 118.71884659 -26.51953125 117.72265625 C-36.01262899 111.129812 -41.73771186 97.72177918 -44.5078125 86.828125 C-45.3112452 82.21157517 -45.24370855 77.66656742 -45 73 C-45.70125 73.08121094 -46.4025 73.16242188 -47.125 73.24609375 C-52.71891389 73.61851465 -56.20960368 73.50968393 -60.5625 69.75 C-63.57350634 66.82037221 -65.69833353 64.11950081 -66.30078125 59.88671875 C-66.33174255 54.07631401 -65.80667333 48.88900241 -61.53515625 44.4921875 C-56.76300344 40.40843815 -54.20749331 39.88504642 -48 40 C-47.97494385 40.71655762 -47.9498877 41.43311523 -47.92407227 42.17138672 C-47.80830249 45.40611514 -47.68549031 48.64053841 -47.5625 51.875 C-47.52318359 53.00292969 -47.48386719 54.13085938 -47.44335938 55.29296875 C-47.40146484 56.36933594 -47.35957031 57.44570312 -47.31640625 58.5546875 C-47.26141968 60.04718018 -47.26141968 60.04718018 -47.20532227 61.56982422 C-47.15040468 64.00779501 -47.15040468 64.00779501 -46 66 C-43.08347826 66.16681109 -43.08347826 66.16681109 -40 66 C-37.61556332 63.61556332 -37.73816495 63.07540218 -37.68115234 59.82568359 C-37.66128265 58.96494232 -37.64141296 58.10420105 -37.62094116 57.21737671 C-37.60938995 56.28712677 -37.59783875 55.35687683 -37.5859375 54.3984375 C-37.56657135 53.44683746 -37.5472052 52.49523743 -37.5272522 51.51480103 C-37.46735868 48.46829253 -37.42103205 45.42174646 -37.375 42.375 C-37.33682921 40.3124833 -37.29777802 38.2499827 -37.2578125 36.1875 C-37.16164914 31.12513034 -37.07765437 26.06268605 -37 21 C-35.9788208 20.67169189 -34.9576416 20.34338379 -33.90551758 20.00512695 C-32.54760588 19.5622659 -31.18978171 19.11913641 -29.83203125 18.67578125 C-29.1611145 18.46087036 -28.49019775 18.24595947 -27.7989502 18.02453613 C-17.14945493 14.52890028 -7.90520133 7.90520133 0 0 Z " fill="#ECECEC" transform="translate(241,125)"/>
<path d="M0 0 C7.73512476 -0.2975048 7.73512476 -0.2975048 11 2 C14.17962042 6.76943063 13.25788603 11.47161648 12.34155273 16.90234375 C12.04644311 18.24907099 11.74350648 19.59410205 11.43359375 20.9375 C11.10979083 22.42442797 10.78623045 23.91140876 10.46289062 25.3984375 C9.95151418 27.70319124 9.43594092 30.00689521 8.9152832 32.30957031 C8.41012588 34.558227 7.92114393 36.80997023 7.43359375 39.0625 C7.19617714 40.07848267 7.19617714 40.07848267 6.95396423 41.11499023 C5.46369271 48.06869876 6.75102205 53.86845824 8.14555359 60.72244263 C10.68981675 73.79602923 10.32953737 86.8589615 10.1875 100.125 C10.125625 108.33375 10.06375 116.5425 10 125 C29.8 125 49.6 125 70 125 C64.03623298 136.92753403 51.98497335 146.6177841 41.64453125 154.71044922 C40.47364387 155.62859458 39.30746216 156.55275454 38.14453125 157.48095703 C27.59157854 165.89584835 16.73838739 173.33617062 5 180 C4.20142578 180.45616699 3.40285156 180.91233398 2.58007812 181.38232422 C-56.22813659 214.58688339 -126.29989972 220.93150471 -191 203 C-224.03030311 193.64716581 -254.74625273 177.0482481 -281 155 C-281.52126465 154.56751953 -282.0425293 154.13503906 -282.57958984 153.68945312 C-289.15026434 148.22918329 -295.55088921 142.63660825 -301.625 136.625 C-302.10952637 136.1496582 -302.59405273 135.67431641 -303.09326172 135.18457031 C-306.31239875 131.93702579 -308.38873604 128.91689594 -311 125 C-207.71 125 -104.42 125 2 125 C1.56624075 90.36134101 1.56624075 90.36134101 -2 56 C-2.78876831 48.90108518 -3.12192391 45.88155696 -1.56640625 39.47265625 C-1.40961899 38.79883408 -1.25283173 38.1250119 -1.09129333 37.43077087 C-0.59545858 35.30446564 -0.08102278 33.18337694 0.4375 31.0625 C3.95993486 18.17953276 3.95993486 18.17953276 4 5 C2.20482277 1.91308423 2.20482277 1.91308423 0 0 Z " fill="#2E6BCE" transform="translate(376,296)"/>
<path d="M0 0 C4.89942826 0.47556527 9.38283432 3.80530961 13.61328125 6.11328125 C25.86001693 11.81416478 37.69350404 12.55070977 50.9375 12.25 C52.50713818 12.22986603 54.07680186 12.21162767 55.64648438 12.1953125 C59.43163866 12.15194952 63.21552328 12.08332322 67 12 C67.00808685 12.64701874 67.01617371 13.29403748 67.02450562 13.96066284 C67.11035872 20.67629128 67.20985315 27.39161796 67.31738281 34.10693359 C67.35573873 36.61534571 67.39057975 39.12381408 67.421875 41.63232422 C67.46738209 45.23165029 67.5254 48.83058683 67.5859375 52.4296875 C67.60326431 54.12035843 67.60326431 54.12035843 67.62094116 55.84518433 C67.6507457 57.40657639 67.6507457 57.40657639 67.68115234 58.99951172 C67.70113785 60.37851151 67.70113785 60.37851151 67.7215271 61.78536987 C67.79576051 64.20466952 67.79576051 64.20466952 70 66 C72.31 66 74.62 66 77 66 C77.33 57.42 77.66 48.84 78 40 C88.59677419 41.17741935 88.59677419 41.17741935 93 46 C95.99879907 51.19791839 96.96824953 56.10443622 96 62 C93.46759618 66.9710149 90.01138866 70.49430567 85 73 C83.29297265 73.06996014 81.58331997 73.08440154 79.875 73.0625 C78.50988281 73.04896484 78.50988281 73.04896484 77.1171875 73.03515625 C76.06917969 73.01775391 76.06917969 73.01775391 75 73 C75.04640625 73.64324219 75.0928125 74.28648437 75.140625 74.94921875 C75.73917368 89.93431254 69.40879115 103.33686349 60.13671875 114.78125 C58.03774671 116.96080415 56.09919566 118.24108642 53.5 119.75 C51.41023337 120.99554656 51.41023337 120.99554656 50 123 C49.31876233 127.73673064 49.53143425 132.24926393 50 137 C50.98097656 137.3403125 51.96195313 137.680625 52.97265625 138.03125 C68.6714573 143.61008171 95.05191242 154.10382484 103 170 C104.41478638 170.00616333 104.41478638 170.00616333 105.8581543 170.01245117 C109.37193676 170.03948859 112.88398682 170.08862841 116.3972168 170.15258789 C117.91501168 170.17572451 119.43296613 170.19015348 120.95092773 170.19555664 C123.1388643 170.20487922 125.32430687 170.24593151 127.51171875 170.29296875 C128.82615967 170.3086792 130.14060059 170.32438965 131.49487305 170.34057617 C135.85238475 171.16036019 137.34689967 172.49953831 140 176 C142.478006 184.52658889 137.97688213 195.76607447 135.9152832 204.19848633 C135.40890976 206.28712671 134.92065041 208.37944041 134.43359375 210.47265625 C134.13509521 211.70250244 133.83659668 212.93234863 133.52905273 214.19946289 C132.13069166 224.24481908 135.50798393 236.55056487 137 246 C137 262.5 137 279 137 296 C56.48 296 -24.04 296 -107 296 C-107 236 -107 236 -102 221 C-101.67 221 -101.34 221 -101 221 C-100.82404297 221.969375 -100.64808594 222.93875 -100.46679688 223.9375 C-98.6810186 233.67431649 -96.66251043 243.34062953 -94.5 253 C-93.90314686 255.6659874 -93.3099814 258.33276084 -92.71875 261 C-92.46029297 262.155 -92.20183594 263.31 -91.93554688 264.5 C-91.02325617 268.7450624 -90.23726764 273.01317141 -89.44152832 277.28125 C-89.30266331 278.02407227 -89.16379829 278.76689453 -89.02072525 279.53222656 C-88.68007945 281.35474223 -88.33998468 283.17736088 -88 285 C-63.27885927 284.89285776 -38.55774961 284.78011391 -13.83666515 284.66066074 C-2.3588126 284.60533064 9.11904307 284.55184897 20.59692383 284.50268555 C30.59845963 284.45984112 40.59997255 284.41356246 50.60147303 284.36312145 C55.89950288 284.33652262 61.19752821 284.31166956 66.49558449 284.29092598 C71.47855134 284.27136189 76.46147468 284.24721874 81.44440269 284.21950912 C83.2766122 284.21013749 85.10883126 284.20246261 86.9410553 284.19658089 C89.43611873 284.18832164 91.93107649 284.17404543 94.42610168 284.15821838 C95.52191416 284.15675122 95.52191416 284.15675122 96.63986427 284.15525442 C99.70166204 284.13015532 102.07099194 283.97633602 105 283 C105.76061459 280.63717138 106.28717837 278.43543294 106.75390625 276.0078125 C106.91548721 275.22769806 107.07706818 274.44758362 107.24354553 273.64382935 C107.62042257 271.8204886 107.99149472 269.99594281 108.35821533 268.17053223 C109.07063815 264.65103479 109.808615 261.13747109 110.55029297 257.62402344 C112.20426021 249.78682138 113.84005409 241.94589701 115.4730835 234.10430908 C116.24096044 230.41831811 117.01020652 226.73261294 117.77929688 223.046875 C118.23338814 220.87003319 118.68744434 218.69318407 119.14149857 216.51633453 C119.43927383 215.08894589 119.73712229 213.66157252 120.03504562 212.23421478 C121.53938607 205.02685294 123.03941082 197.81872961 124.52001953 190.60644531 C124.75129044 189.48384308 124.98256134 188.36124084 125.22084045 187.20462036 C125.64754074 185.1317595 126.07202457 183.05844066 126.49388123 180.98458862 C126.67967239 180.08362457 126.86546356 179.18266052 127.05688477 178.25439453 C127.21616959 177.47500519 127.37545441 176.69561584 127.53956604 175.89260864 C128 174 128 174 129 172 C127.46054214 172.00333092 127.46054214 172.00333092 125.88998413 172.00672913 C112.38499913 172.03490918 98.88001003 172.05207071 85.375 172.0625 C84.27458878 172.06335602 83.17417755 172.06421204 82.04042053 172.06509399 C45.2743584 172.09027335 8.5139734 171.88783511 -28.25 171.5 C-29.9511433 171.48206327 -29.9511433 171.48206327 -31.68665314 171.46376419 C-45.45786938 171.31778624 -59.22897979 171.16340591 -73 171 C-72.04225548 169.87606811 -71.08358013 168.75292936 -70.12451172 167.63012695 C-69.32386795 166.69182793 -69.32386795 166.69182793 -68.50704956 165.73457336 C-57.04353181 152.54037387 -36.55023072 139.5587376 -19 138 C-18.41254572 128.86428474 -18.41254572 128.86428474 -21.7890625 120.83203125 C-23.33791468 119.75422175 -24.91696418 118.71884659 -26.51953125 117.72265625 C-36.01262899 111.129812 -41.73771186 97.72177918 -44.5078125 86.828125 C-45.3112452 82.21157517 -45.24370855 77.66656742 -45 73 C-45.70125 73.08121094 -46.4025 73.16242188 -47.125 73.24609375 C-52.71891389 73.61851465 -56.20960368 73.50968393 -60.5625 69.75 C-63.57350634 66.82037221 -65.69833353 64.11950081 -66.30078125 59.88671875 C-66.33174255 54.07631401 -65.80667333 48.88900241 -61.53515625 44.4921875 C-56.76300344 40.40843815 -54.20749331 39.88504642 -48 40 C-47.97494385 40.71655762 -47.9498877 41.43311523 -47.92407227 42.17138672 C-47.80830249 45.40611514 -47.68549031 48.64053841 -47.5625 51.875 C-47.52318359 53.00292969 -47.48386719 54.13085938 -47.44335938 55.29296875 C-47.40146484 56.36933594 -47.35957031 57.44570312 -47.31640625 58.5546875 C-47.26141968 60.04718018 -47.26141968 60.04718018 -47.20532227 61.56982422 C-47.15040468 64.00779501 -47.15040468 64.00779501 -46 66 C-43.08347826 66.16681109 -43.08347826 66.16681109 -40 66 C-37.61556332 63.61556332 -37.73816495 63.07540218 -37.68115234 59.82568359 C-37.66128265 58.96494232 -37.64141296 58.10420105 -37.62094116 57.21737671 C-37.60938995 56.28712677 -37.59783875 55.35687683 -37.5859375 54.3984375 C-37.56657135 53.44683746 -37.5472052 52.49523743 -37.5272522 51.51480103 C-37.46735868 48.46829253 -37.42103205 45.42174646 -37.375 42.375 C-37.33682921 40.3124833 -37.29777802 38.2499827 -37.2578125 36.1875 C-37.16164914 31.12513034 -37.07765437 26.06268605 -37 21 C-35.9788208 20.67169189 -34.9576416 20.34338379 -33.90551758 20.00512695 C-32.54760588 19.5622659 -31.18978171 19.11913641 -29.83203125 18.67578125 C-29.1611145 18.46087036 -28.49019775 18.24595947 -27.7989502 18.02453613 C-17.14945493 14.52890028 -7.90520133 7.90520133 0 0 Z " fill="#FECDAA" transform="translate(241,125)"/>
<path d="M0 0 C1.63908325 0.0141394 1.63908325 0.0141394 3.3112793 0.02856445 C26.60267847 0.4628666 46.41492998 9.84211209 62.625 26.375 C79.55928083 44.20527453 84.68333961 65.60986706 84.08203125 89.5703125 C83.51985706 101.01332862 80.34100869 111.42491079 74.625 121.375 C71.325 120.715 68.025 120.055 64.625 119.375 C64.64856567 120.4419812 64.64856567 120.4419812 64.67260742 121.53051758 C64.73491915 124.74943104 64.77397867 127.96821768 64.8125 131.1875 C64.83763672 132.30705078 64.86277344 133.42660156 64.88867188 134.58007812 C64.90317383 136.18979492 64.90317383 136.18979492 64.91796875 137.83203125 C64.9336792 138.82178955 64.94938965 139.81154785 64.96557617 140.83129883 C64.625 143.375 64.625 143.375 63.26293945 145.19799805 C60.92393759 146.87877432 59.43701885 146.79680283 56.625 146.375 C54.37132694 144.71563754 53.69593474 143.83409412 53.26423645 141.04011536 C53.27089828 140.12300278 53.27756012 139.2058902 53.28442383 138.26098633 C53.28465042 137.22013382 53.28487701 136.17928131 53.28511047 135.10688782 C53.30059433 133.98493515 53.31607819 132.86298248 53.33203125 131.70703125 C53.33627609 130.55708176 53.34052094 129.40713226 53.34489441 128.22233582 C53.36170811 124.54382059 53.39936623 120.86585008 53.4375 117.1875 C53.45254331 114.69597144 53.46623233 112.20443432 53.47851562 109.71289062 C53.51162047 103.60007407 53.56184695 97.48757595 53.625 91.375 C52.59503906 91.53508545 51.56507813 91.6951709 50.50390625 91.86010742 C30.11776269 94.56619861 11.64768543 92.61097935 -6.44921875 82.86328125 C-9.77012828 81.05844719 -9.77012828 81.05844719 -13.375 80.375 C-15.39525008 81.75027743 -15.39525008 81.75027743 -17.3125 83.8125 C-25.97491875 91.93440658 -38.06510628 100.375 -50.375 100.375 C-50.35928955 101.66188721 -50.3435791 102.94877441 -50.32739258 104.2746582 C-50.27314225 109.04363764 -50.2386677 113.81258974 -50.21020508 118.58178711 C-50.19510729 120.64693791 -50.17462726 122.7120566 -50.14868164 124.77709961 C-50.11234205 127.74340739 -50.0952837 130.70929171 -50.08203125 133.67578125 C-50.06654739 134.6008699 -50.05106354 135.52595856 -50.03511047 136.4790802 C-50.03488388 137.33974594 -50.03465729 138.20041168 -50.03442383 139.0871582 C-50.02776199 139.84438675 -50.02110016 140.6016153 -50.01423645 141.38179016 C-50.4785852 143.94730569 -51.30999167 144.82271097 -53.375 146.375 C-56.4375 146.75 -56.4375 146.75 -59.375 146.375 C-61.64098448 142.97602327 -61.61242654 141.81180827 -61.5703125 137.83203125 C-61.56386719 136.75888672 -61.55742187 135.68574219 -61.55078125 134.58007812 C-61.53402344 133.46052734 -61.51726562 132.34097656 -61.5 131.1875 C-61.49097656 130.05634766 -61.48195312 128.92519531 -61.47265625 127.75976562 C-61.44906862 124.96463172 -61.416153 122.16992155 -61.375 119.375 C-66.325 120.365 -66.325 120.365 -71.375 121.375 C-81.13902519 101.84694962 -84.67192872 78.06288714 -77.83203125 56.890625 C-73.19658207 45.70589507 -67.58235225 35.35850025 -59.375 26.375 C-58.78589844 25.694375 -58.19679687 25.01375 -57.58984375 24.3125 C-43.11100408 8.57329424 -21.10914931 -0.28381774 0 0 Z " fill="#2F4867" transform="translate(254.375,45.625)"/>
<path d="M0 0 C1.05058594 0.48210937 2.10117188 0.96421875 3.18359375 1.4609375 C18.56423694 8.43195438 34.52517453 12.46866439 51.25390625 7.06640625 C56.9082735 4.87061356 62.47046069 2.49434693 68 0 C68.33 4.29 68.66 8.58 69 13 C69.98097656 13.3403125 70.96195313 13.680625 71.97265625 14.03125 C87.6714573 19.61008171 114.05191242 30.10382484 122 46 C123.41478638 46.00616333 123.41478638 46.00616333 124.8581543 46.01245117 C128.37193676 46.03948859 131.88398682 46.08862841 135.3972168 46.15258789 C136.91501168 46.17572451 138.43296613 46.19015348 139.95092773 46.19555664 C142.1388643 46.20487922 144.32430687 46.24593151 146.51171875 46.29296875 C148.48338013 46.31653442 148.48338013 46.31653442 150.49487305 46.34057617 C154.85238475 47.16036019 156.34689967 48.49953831 159 52 C161.478006 60.52658889 156.97688213 71.76607447 154.9152832 80.19848633 C154.40890976 82.28712671 153.92065041 84.37944041 153.43359375 86.47265625 C152.98584595 88.31742554 152.98584595 88.31742554 152.52905273 90.19946289 C151.13069166 100.24481908 154.50798393 112.55056487 156 122 C156 138.5 156 155 156 172 C75.48 172 -5.04 172 -88 172 C-88 112 -88 112 -83 97 C-82.67 97 -82.34 97 -82 97 C-81.82404297 97.969375 -81.64808594 98.93875 -81.46679688 99.9375 C-79.6810186 109.67431649 -77.66251043 119.34062953 -75.5 129 C-74.90314686 131.6659874 -74.3099814 134.33276084 -73.71875 137 C-73.33106445 138.7325 -73.33106445 138.7325 -72.93554688 140.5 C-72.02325617 144.7450624 -71.23726764 149.01317141 -70.44152832 153.28125 C-70.30266331 154.02407227 -70.16379829 154.76689453 -70.02072525 155.53222656 C-69.68007945 157.35474223 -69.33998468 159.17736088 -69 161 C-44.27885927 160.89285776 -19.55774961 160.78011391 5.16333485 160.66066074 C16.6411874 160.60533064 28.11904307 160.55184897 39.59692383 160.50268555 C49.59845963 160.45984112 59.59997255 160.41356246 69.60147303 160.36312145 C74.89950288 160.33652262 80.19752821 160.31166956 85.49558449 160.29092598 C90.47855134 160.27136189 95.46147468 160.24721874 100.44440269 160.21950912 C102.2766122 160.21013749 104.10883126 160.20246261 105.9410553 160.19658089 C108.43611873 160.18832164 110.93107649 160.17404543 113.42610168 160.15821838 C114.15664334 160.15724028 114.88718499 160.15626217 115.63986427 160.15525442 C118.70166204 160.13015532 121.07099194 159.97633602 124 159 C124.76061459 156.63717138 125.28717837 154.43543294 125.75390625 152.0078125 C125.91548721 151.22769806 126.07706818 150.44758362 126.24354553 149.64382935 C126.62042257 147.8204886 126.99149472 145.99594281 127.35821533 144.17053223 C128.07063815 140.65103479 128.808615 137.13747109 129.55029297 133.62402344 C131.20426021 125.78682138 132.84005409 117.94589701 134.4730835 110.10430908 C135.24096044 106.41831811 136.01020652 102.73261294 136.77929688 99.046875 C137.23338814 96.87003319 137.68744434 94.69318407 138.14149857 92.51633453 C138.43927383 91.08894589 138.73712229 89.66157252 139.03504562 88.23421478 C140.53938607 81.02685294 142.03941082 73.81872961 143.52001953 66.60644531 C143.86692589 64.92254196 143.86692589 64.92254196 144.22084045 63.20462036 C144.64754074 61.1317595 145.07202457 59.05844066 145.49388123 56.98458862 C145.67967239 56.08362457 145.86546356 55.18266052 146.05688477 54.25439453 C146.21616959 53.47500519 146.37545441 52.69561584 146.53956604 51.89260864 C147 50 147 50 148 48 C146.97369476 48.00222061 145.94738953 48.00444122 144.88998413 48.00672913 C131.38499913 48.03490918 117.88001003 48.05207071 104.375 48.0625 C103.27458878 48.06335602 102.17417755 48.06421204 101.04042053 48.06509399 C64.2743584 48.09027335 27.5139734 47.88783511 -9.25 47.5 C-10.38409554 47.48804218 -11.51819107 47.47608437 -12.68665314 47.46376419 C-26.45786938 47.31778624 -40.22897979 47.16340591 -54 47 C-53.04225548 45.87606811 -52.08358013 44.75292936 -51.12451172 43.63012695 C-50.32386795 42.69182793 -50.32386795 42.69182793 -49.50704956 41.73457336 C-38.04353181 28.54037387 -17.55023072 15.5587376 0 14 C0 9.38 0 4.76 0 0 Z " fill="#DDDBDF" transform="translate(222,249)"/>
<path d="M0 0 C1.05058594 0.48210937 2.10117188 0.96421875 3.18359375 1.4609375 C18.56423694 8.43195438 34.52517453 12.46866439 51.25390625 7.06640625 C56.9082735 4.87061356 62.47046069 2.49434693 68 0 C68.495 6.435 68.495 6.435 69 13 C69.98097656 13.3403125 70.96195312 13.680625 71.97265625 14.03125 C87.37397398 19.50436604 100.40932947 26.56724466 113 37 C113.84175781 37.68835938 114.68351563 38.37671875 115.55078125 39.0859375 C120.84881687 43.54645062 120.84881687 43.54645062 122 47 C63.92 47 5.84 47 -54 47 C-40.90405069 31.72139247 -20.8100613 15.84826202 0 14 C0 9.38 0 4.76 0 0 Z " fill="#F4BC97" transform="translate(222,249)"/>
<path d="M0 0 C16.49346788 -0.98960807 32.55857438 5.92367254 46 15 C47.33563908 16.26772523 48.6503015 17.55811768 49.9375 18.875 C54.76123167 23.45293642 60.65588117 23.06769639 67 23 C66.99097656 23.98097656 66.98195313 24.96195313 66.97265625 25.97265625 C67.10258514 35.42911688 68.96537042 42.22134321 73.28125 50.58984375 C81.51563018 66.9276026 81.42599927 89.82760671 76 107 C74.18315478 112.07794282 72.14157196 117.05151334 70 122 C70.61359375 122.26554687 71.2271875 122.53109375 71.859375 122.8046875 C75.19462685 124.66707266 76.67637521 127.5382121 78 131 C78.99280971 136.56409837 77.78318273 141.08304385 75 146 C71.91748643 149.3482475 68.41659263 151.81506051 64 153 C61.6679198 153.07646165 59.33154122 153.09143299 57 153 C57.04125 154.299375 57.0825 155.59875 57.125 156.9375 C56.99045603 171.42340058 49.97972016 184.68738711 40.12109375 195.05859375 C38.28391213 196.74013936 36.54013214 197.94884176 34.4375 199.25 C30.70673491 203.45906831 31.55445849 207.67828845 31.7890625 213.11328125 C31.85867188 214.06589844 31.92828125 215.01851562 32 216 C33.4540625 216.49306641 33.4540625 216.49306641 34.9375 216.99609375 C53.73494467 223.57839583 71.81429101 233.74282011 85 249 C85 249.33 85 249.66 85 250 C77.75284794 250.61416543 77.75284794 250.61416543 74.625 248.0625 C74.23441406 247.60488281 73.84382813 247.14726562 73.44140625 246.67578125 C60.35655319 231.46330981 41.36169869 222.95584351 23 216 C21.93208123 203.62570312 21.93208123 203.62570312 24.48828125 199.734375 C28.86620146 196 28.86620146 196 32 196 C32.27070313 195.41734375 32.54140625 194.8346875 32.8203125 194.234375 C33.99428203 192.01083007 35.30979861 190.21258413 36.875 188.25 C44.86037686 177.68681944 48.47236307 165.16454129 49 152 C49.97839844 151.96132813 49.97839844 151.96132813 50.9765625 151.921875 C58.29829061 151.4467186 62.39192416 149.95124371 67.375 144.3125 C69.74573194 139.47985412 69.87121633 135.19654914 68.45703125 130.0078125 C66.99443214 126.24222584 65.04086297 123.62143359 62 121 C62.27714844 120.17886719 62.55429687 119.35773438 62.83984375 118.51171875 C64.12397929 114.62472263 65.34828735 110.72176032 66.5625 106.8125 C68.88006757 99.3597973 68.88006757 99.3597973 70 96 C71.69830307 70.35445246 68.07494902 47.97962845 50.875 28.05859375 C49.946875 27.03958984 49.946875 27.03958984 49 26 C48.484375 25.39285156 47.96875 24.78570312 47.4375 24.16015625 C35.85957502 11.39549396 16.93228038 2.84046526 0 1 C0 0.67 0 0.34 0 0 Z " fill="#306CCC" transform="translate(267,46)"/>
<path d="M0 0 C16.99483087 4.92281127 31.44521005 12.65747175 45 24 C45.83917969 24.68707031 46.67835938 25.37414062 47.54296875 26.08203125 C52.84707992 30.54123975 52.84707992 30.54123975 54 34 C30.24 34 6.48 34 -18 34 C-16.35 32.68 -14.7 31.36 -13 30 C-5.82553379 24.16314613 -1.9730178 16.93901235 -0.47265625 7.78125 C-0.22806756 5.18123873 -0.05652121 2.61025205 0 0 Z " fill="#F14B51" transform="translate(290,262)"/>
<path d="M0 0 C0.08636719 0.82242187 0.17273438 1.64484375 0.26171875 2.4921875 C1.74445819 14.2724843 5.13648239 22.08164422 14 30 C14.99 30.99 15.98 31.98 17 33 C-6.43 33 -29.86 33 -54 33 C-41.9235905 18.91085558 -19.93867232 0 0 0 Z " fill="#F14B51" transform="translate(222,263)"/>
<path d="M0 0 C0.33 0 0.66 0 1 0 C1.17668213 0.97300049 1.35336426 1.94600098 1.53540039 2.94848633 C3.17847558 11.90521984 5.00094269 20.79980093 6.99017334 29.68688965 C9.62436395 41.4679648 12.09525688 53.26562662 14.2734375 65.140625 C14.51320312 66.41421875 14.75296875 67.6878125 15 69 C15.11811035 69.71897461 15.2362207 70.43794922 15.35791016 71.17871094 C15.5697998 71.77973633 15.78168945 72.38076172 16 73 C17.485 73.495 17.485 73.495 19 74 C19 74.33 19 74.66 19 75 C11.08 75 3.16 75 -5 75 C-5.06956192 68.22672993 -5.12908308 61.45474165 -5.16479492 54.68139648 C-5.17971086 52.38610594 -5.20005081 50.090843 -5.22631836 47.7956543 C-5.40585655 31.68298207 -5.55670162 15.35749817 0 0 Z " fill="#EB4E56" transform="translate(139,346)"/>
<path d="M0 0 C0.33 0 0.66 0 1 0 C1.48062124 2.68724704 1.95953496 5.37478033 2.4375 8.0625 C2.57220703 8.81466797 2.70691406 9.56683594 2.84570312 10.34179688 C3.04389648 11.45844727 3.04389648 11.45844727 3.24609375 12.59765625 C3.36654053 13.27320557 3.4869873 13.94875488 3.61108398 14.64477539 C3.73942627 15.42199951 3.86776855 16.19922363 4 17 C4.17853516 18.00611328 4.35707031 19.01222656 4.54101562 20.04882812 C5.14577011 25.25486356 5.12321058 30.38495012 5.09765625 35.62109375 C5.0962413 36.72099136 5.09482635 37.82088898 5.09336853 38.95411682 C5.08779503 42.44860617 5.07524739 45.94303019 5.0625 49.4375 C5.05748158 51.8144522 5.05291927 54.1914054 5.04882812 56.56835938 C5.03868748 62.37895134 5.01910682 68.189403 5 74 C-2.92 74 -10.84 74 -19 74 C-17.68 72.02 -16.36 70.04 -15 68 C-14.21206395 65.23764895 -13.58629023 62.64042625 -13.0703125 59.83203125 C-12.8365818 58.65451797 -12.8365818 58.65451797 -12.59812927 57.45321655 C-12.26659996 55.77565326 -11.94108671 54.09689156 -11.62112427 52.41708374 C-10.95286669 48.90882397 -10.25577376 45.40649496 -9.56013489 41.90357971 C-9.21015166 40.13974764 -8.86167116 38.37561672 -8.51469421 36.6111908 C-6.9716212 28.77823734 -5.30167595 20.97924576 -3.5625 13.1875 C-3.31580566 12.06899658 -3.06911133 10.95049316 -2.81494141 9.7980957 C-1.12845066 2.25690132 -1.12845066 2.25690132 0 0 Z " fill="#EC4D55" transform="translate(373,347)"/>
<path d="M0 0 C12.54 0 25.08 0 38 0 C38 5.94 38 11.88 38 18 C25.46 18 12.92 18 0 18 C0 12.06 0 6.12 0 0 Z " fill="#2D6CCE" transform="translate(75,350)"/>
<path d="M0 0 C12.54 0 25.08 0 38 0 C38 5.94 38 11.88 38 18 C25.46 18 12.92 18 0 18 C0 12.06 0 6.12 0 0 Z " fill="#2D6CCE" transform="translate(103,82)"/>
<path d="M0 0 C12.54 0 25.08 0 38 0 C38 5.94 38 11.88 38 18 C25.46 18 12.92 18 0 18 C0 12.06 0 6.12 0 0 Z " fill="#2C6CCE" transform="translate(338,69)"/>
<path d="M0 0 C10.89 0 21.78 0 33 0 C38 10 38 10 38 18 C25.46 18 12.92 18 0 18 C0 12.06 0 6.12 0 0 Z " fill="#2D6CCE" transform="translate(167,220)"/>
<path d="M0 0 C12.54 0 25.08 0 38 0 C38 5.61 38 11.22 38 17 C25.46 17 12.92 17 0 17 C0 11.39 0 5.78 0 0 Z " fill="#2D6BCE" transform="translate(460,293)"/>
<path d="M0 0 C12.54 0 25.08 0 38 0 C38 5.61 38 11.22 38 17 C25.46 17 12.92 17 0 17 C0 11.39 0 5.78 0 0 Z " fill="#2D6BCE" transform="translate(460,249)"/>
<path d="M0 0 C12.21 0 24.42 0 37 0 C37 5.61 37 11.22 37 17 C24.79 17 12.58 17 0 17 C0 11.39 0 5.78 0 0 Z " fill="#2E6BCE" transform="translate(94,372)"/>
<path d="M0 0 C12.21 0 24.42 0 37 0 C37 5.61 37 11.22 37 17 C24.79 17 12.58 17 0 17 C0 11.39 0 5.78 0 0 Z " fill="#2E6BCE" transform="translate(94,328)"/>
<path d="M0 0 C12.21 0 24.42 0 37 0 C37 5.61 37 11.22 37 17 C24.79 17 12.58 17 0 17 C0 11.39 0 5.78 0 0 Z " fill="#2E6BCE" transform="translate(358,91)"/>
<path d="M0 0 C0 5.94 0 11.88 0 18 C-12.54 18 -25.08 18 -38 18 C-38 10 -38 10 -36.2890625 7.03125 C-25.87408506 -2.86450569 -13.59151532 -0.90744538 0 0 Z " fill="#2D6BCE" transform="translate(122,60)"/>
<path d="M0 0 C4.00355334 -0.13849576 8.00094039 -0.25765819 12.00561523 -0.32958984 C13.36462697 -0.35959295 14.72344781 -0.40041185 16.08178711 -0.45263672 C28.79677542 -0.92892346 28.79677542 -0.92892346 33.40625 2.53125 C36.04031704 5.37427655 36.75073603 7.91046962 36.61523438 11.859375 C36.55658203 12.52453125 36.49792969 13.1896875 36.4375 13.875 C36.40591797 14.56335938 36.37433594 15.25171875 36.34179688 15.9609375 C36.26005431 17.64249892 36.13450941 19.32183497 36 21 C35.34 20.67 34.68 20.34 34 20 C34.495 18.515 34.495 18.515 35 17 C23.45 17 11.9 17 0 17 C0 11.39 0 5.78 0 0 Z " fill="#306CCD" transform="translate(186,242)"/>
<path d="M0 0 C0.02505615 0.71655762 0.0501123 1.43311523 0.07592773 2.17138672 C0.19169751 5.40611514 0.31450969 8.64053841 0.4375 11.875 C0.47681641 13.00292969 0.51613281 14.13085938 0.55664062 15.29296875 C0.59853516 16.36933594 0.64042969 17.44570312 0.68359375 18.5546875 C0.72025146 19.54968262 0.75690918 20.54467773 0.79467773 21.56982422 C0.84959532 24.00779501 0.84959532 24.00779501 2 26 C4.52733235 26.65555119 4.52733235 26.65555119 7 27 C6.360625 27.2475 5.72125 27.495 5.0625 27.75 C2.80696091 28.80283433 2.80696091 28.80283433 2.37109375 31.078125 C2.24863281 31.71234375 2.12617188 32.3465625 2 33 C-2.49305416 33.58004593 -6.38026854 33.96704362 -10.375 31.58203125 C-14.25688052 28.23533646 -17.55164169 25.15015386 -18.30078125 19.88671875 C-18.33174255 14.07631401 -17.80667333 8.88900241 -13.53515625 4.4921875 C-8.76300344 0.40843815 -6.20749331 -0.11495358 0 0 Z " fill="#EFBB98" transform="translate(193,165)"/>
<path d="M0 0 C9.57 0 19.14 0 29 0 C28.67 5.94 28.34 11.88 28 18 C18.76 18 9.52 18 0 18 C0 12.06 0 6.12 0 0 Z " fill="#2D6CCE" transform="translate(479,271)"/>
<path d="M0 0 C10.59677419 1.17741935 10.59677419 1.17741935 15 6 C17.99879907 11.19791839 18.96824953 16.10443622 18 22 C15.46759618 26.9710149 12.01138866 30.49430567 7 33 C5.45976004 33.06950541 3.91665012 33.08452357 2.375 33.0625 C1.14910156 33.04896484 1.14910156 33.04896484 -0.1015625 33.03515625 C-0.72804688 33.02355469 -1.35453125 33.01195312 -2 33 C-2.33 30.69 -2.66 28.38 -3 26 C-2.34 26 -1.68 26 -1 26 C-0.67 17.42 -0.34 8.84 0 0 Z " fill="#F0BB97" transform="translate(319,165)"/>
<path d="M0 0 C0 5.61 0 11.22 0 17 C-11.88 17 -23.76 17 -36 17 C-30.37524792 11.37524792 -30.37524792 11.37524792 -27.3359375 9.39453125 C-26.68882813 8.96849609 -26.04171875 8.54246094 -25.375 8.10351562 C-24.715 7.67748047 -24.055 7.25144531 -23.375 6.8125 C-22.70726563 6.37486328 -22.03953125 5.93722656 -21.3515625 5.48632812 C-20.11554023 4.67673354 -18.87794022 3.86953822 -17.63818359 3.06567383 C-11.52457892 -0.91135812 -7.34186254 -0.14538342 0 0 Z " fill="#2D6BCE" transform="translate(140,38)"/>
<path d="M0 0 C6.6 0 13.2 0 20 0 C20 5.94 20 11.88 20 18 C13.4 18 6.8 18 0 18 C0 12.06 0 6.12 0 0 Z " fill="#2C6CCF" transform="translate(51,350)"/>
<path d="M0 0 C6.6 0 13.2 0 20 0 C20 5.94 20 11.88 20 18 C13.4 18 6.8 18 0 18 C0 12.06 0 6.12 0 0 Z " fill="#2C6CCE" transform="translate(143,220)"/>
<path d="M0 0 C6.6 0 13.2 0 20 0 C20 5.94 20 11.88 20 18 C13.4 18 6.8 18 0 18 C0 12.06 0 6.12 0 0 Z " fill="#2C6CCE" transform="translate(145,82)"/>
<path d="M0 0 C6.6 0 13.2 0 20 0 C20 5.61 20 11.22 20 17 C13.4 17 6.8 17 0 17 C0 11.39 0 5.78 0 0 Z " fill="#2D6BCE" transform="translate(436,293)"/>
<path d="M0 0 C6.27 0 12.54 0 19 0 C19 5.61 19 11.22 19 17 C12.73 17 6.46 17 0 17 C0 11.39 0 5.78 0 0 Z " fill="#2D6BCE" transform="translate(400,91)"/>
<path d="M0 0 C1.98 0 3.96 0 6 0 C5.30098055 4.78559466 3.49459337 8.94473164 1.62109375 13.36328125 C1.28956802 14.15526413 0.9580423 14.94724701 0.61647034 15.76322937 C-0.4388512 18.28149836 -1.50057498 20.7970095 -2.5625 23.3125 C-3.28102363 25.02391031 -3.99912735 26.73549698 -4.71679688 28.44726562 C-6.47300644 32.63356919 -8.2349611 36.81741186 -10 41 C-11.98 41 -13.96 41 -16 41 C-15.40074098 36.05035102 -13.84946978 31.80255397 -11.875 27.265625 C-11.56804199 26.54638855 -11.26108398 25.8271521 -10.94482422 25.08612061 C-9.96935841 22.80472329 -8.98476751 20.52739532 -8 18.25 C-7.3379513 16.70467987 -6.67648693 15.15910927 -6.015625 13.61328125 C-1.28725962 2.57451923 -1.28725962 2.57451923 0 0 Z " fill="#51799E" transform="translate(261,338)"/>
<path d="M0 0 C4.61474108 1.57640964 8.29864009 4.0293326 12.25 6.8125 C13.20519531 7.45155273 13.20519531 7.45155273 14.1796875 8.10351562 C18.84037951 11.38087458 18.84037951 11.38087458 19.68652344 14.6628418 C19.7899707 15.434104 19.89341797 16.20536621 20 17 C17.04666001 19.00745255 14.08653968 21.00466826 11.125 23 C10.28324219 23.57234375 9.44148438 24.1446875 8.57421875 24.734375 C7.76855469 25.27578125 6.96289062 25.8171875 6.1328125 26.375 C5.01737061 27.12910156 5.01737061 27.12910156 3.87939453 27.8984375 C2 29 2 29 0 29 C-0.34375 26.2734375 -0.34375 26.2734375 0 23 C2.40625 20.6640625 2.40625 20.6640625 5.5 18.625 C6.5209375 17.93664062 7.541875 17.24828125 8.59375 16.5390625 C9.3878125 16.03117187 10.181875 15.52328125 11 15 C7.65517587 12.29038462 7.65517587 12.29038462 4.19921875 9.7265625 C2.6875 8.625 2.6875 8.625 0 6 C-0.375 2.6875 -0.375 2.6875 0 0 Z " fill="#547BA0" transform="translate(271,344)"/>
<path d="M0 0 C0.5625 2.5625 0.5625 2.5625 0 6 C-2.75638284 8.68956144 -5.85269261 10.79574861 -9 13 C-9.66 13.66 -10.32 14.32 -11 15 C-10.2059375 15.50789063 -9.411875 16.01578125 -8.59375 16.5390625 C-7.5728125 17.22742188 -6.551875 17.91578125 -5.5 18.625 C-4.4790625 19.29789062 -3.458125 19.97078125 -2.40625 20.6640625 C0 23 0 23 0.34375 26.2734375 C0.2303125 27.17320312 0.116875 28.07296875 0 29 C-4.79821659 27.37885498 -8.6672859 24.70723241 -12.8125 21.875 C-13.50537109 21.40707031 -14.19824219 20.93914062 -14.91210938 20.45703125 C-16.61091105 19.30887563 -18.30584864 18.15500633 -20 17 C-19.91407717 14.34116577 -19.5930619 12.58037494 -17.65332031 10.68212891 C-15.84993711 9.32263162 -14.01014609 8.05609437 -12.125 6.8125 C-11.48691406 6.37486328 -10.84882813 5.93722656 -10.19140625 5.48632812 C-8.4706806 4.30984033 -6.7359543 3.15389903 -5 2 C-2 0 -2 0 0 0 Z " fill="#537B9F" transform="translate(241,344)"/>
<path d="M0 0 C3.43663181 0.44343636 6.0218414 1.49794294 9.0625 3.0625 C14.66522844 5.59396534 19.94586112 5.96172519 26 5 C28.75872931 3.85819259 31.21531135 2.57622692 33.74609375 0.99609375 C36.56776812 -0.25092005 38.09237525 0.14360964 41 1 C39.5438453 4.83672222 37.78641047 5.96544196 34.125 7.6875 C32.82949219 8.31205078 32.82949219 8.31205078 31.5078125 8.94921875 C22.95444859 12.53310488 14.90776297 11.51865954 6.4296875 8.15625 C3.57813372 6.79924049 1.27234622 5.19398945 -1 3 C-0.67 2.01 -0.34 1.02 0 0 Z " fill="#FFBF9C" transform="translate(236,223)"/>
<path d="M0 0 C16.17 0 32.34 0 49 0 C48.67 1.32 48.34 2.64 48 4 C32.49 4 16.98 4 1 4 C0.67 2.68 0.34 1.36 0 0 Z " fill="#FDFDFD" transform="translate(192,300)"/>
<path d="M0 0 C1.875 1.125 1.875 1.125 3 3 C3.54400387 6.65259739 3.43774093 8.3433886 1.375 11.4375 C-1 13 -1 13 -4.125 12.875 C-7 12 -7 12 -9 10 C-9.55021834 3.94759825 -9.55021834 3.94759825 -7.875 1.0625 C-5.11019567 -0.50422245 -3.11811483 -0.38976435 0 0 Z " fill="#374D69" transform="translate(285,169)"/>
<path d="M0 0 C1.875 1.0625 1.875 1.0625 3 3 C3.4375 6.5 3.4375 6.5 3 10 C1.375 12 1.375 12 -1 13 C-4.125 12.875 -4.125 12.875 -7 12 C-9.31282587 8.53076119 -9.42478586 7.07794425 -9 3 C-6.79086995 -0.68188342 -4.01844539 -0.50230567 0 0 Z " fill="#374D69" transform="translate(233,169)"/>
<path d="M0 0 C10.23 0 20.46 0 31 0 C30.67 1.32 30.34 2.64 30 4 C20.43 4 10.86 4 1 4 C0.67 2.68 0.34 1.36 0 0 Z " fill="#FDFDFD" transform="translate(150,300)"/>
<path d="M0 0 C6.6 0 13.2 0 20 0 C17 5 17 5 14.75 6.375 C11.08418834 7.20813901 8.63513295 6.97369633 5 6 C2.0625 3.5 2.0625 3.5 0 1 C0 0.67 0 0.34 0 0 Z " fill="#FFC09C" transform="translate(246,202)"/>
<path d="M0 0 C7.26 0 14.52 0 22 0 C22 0.99 22 1.98 22 3 C14.74 3 7.48 3 0 3 C0 2.01 0 1.02 0 0 Z " fill="#324A68" transform="translate(271,162)"/>
<path d="M0 0 C7.26 0 14.52 0 22 0 C22 0.99 22 1.98 22 3 C14.74 3 7.48 3 0 3 C0 2.01 0 1.02 0 0 Z " fill="#324A68" transform="translate(219,162)"/>
<path d="M0 0 C0.66 0.33 1.32 0.66 2 1 C1.36191406 1.58007812 0.72382812 2.16015625 0.06640625 2.7578125 C-0.75988281 3.53898437 -1.58617188 4.32015625 -2.4375 5.125 C-3.26121094 5.89070313 -4.08492188 6.65640625 -4.93359375 7.4453125 C-7.29708903 10.36728965 -7.70512281 12.30063155 -8 16 C-8.33 16 -8.66 16 -9 16 C-9.50938403 12.83049936 -9.78797864 11.04891082 -9 8 C-6.31840503 4.90544986 -3.27563079 2.44372456 0 0 Z " fill="#2574D5" transform="translate(93,62)"/>
</svg>
