<?xml version="1.0" encoding="UTF-8"?>
<svg version="1.1" xmlns="http://www.w3.org/2000/svg" width="500" height="500">
<path d="M0 0 C1.16609299 -0.00101212 1.16609299 -0.00101212 2.35574341 -0.00204468 C47.67868873 0.06027051 93.96767706 14.89394232 128.3125 45.25 C129.41254477 46.16226514 130.51560661 47.07090011 131.62109375 47.9765625 C166.41619103 76.69922537 188.79318071 117.42870536 198.3125 161.25 C198.49184082 162.06919922 198.67118164 162.88839844 198.85595703 163.73242188 C209.03774429 212.95281946 197.20489431 267.36655787 170.04199219 309.20703125 C152.06252814 335.94785076 129.28113024 358.18563801 101.3125 374.25 C100.69213867 374.60803711 100.07177734 374.96607422 99.43261719 375.33496094 C84.49157508 383.86741341 68.73697432 389.91840221 52.1875 394.5625 C51.37901611 394.79283936 50.57053223 395.02317871 49.73754883 395.26049805 C33.83053621 399.50143429 17.96744872 400.8053157 1.5625 400.6875 C0.64462708 400.68412628 -0.27324585 400.68075256 -1.21893311 400.67727661 C-15.38496372 400.60204159 -28.92259234 399.83973224 -42.6875 396.25 C-43.65171875 396.00862305 -44.6159375 395.76724609 -45.609375 395.51855469 C-96.50385299 382.5502502 -142.35509196 351.13936688 -169.5 305.625 C-170.57351584 303.7759257 -171.63067116 301.9193138 -172.67431641 300.05322266 C-173.6606882 298.29771854 -174.67956369 296.56060222 -175.69921875 294.82421875 C-185.53155297 277.70787189 -191.70068908 258.50960912 -195.6875 239.25 C-195.93089111 238.16477051 -195.93089111 238.16477051 -196.17919922 237.05761719 C-207.18229674 186.84533935 -193.51894528 133.1045933 -166.6875 90.25 C-155.29832491 72.64039143 -141.09513918 57.25023263 -124.6875 44.25 C-123.73359375 43.46753906 -122.7796875 42.68507812 -121.796875 41.87890625 C-87.22499163 14.17707663 -44.06203912 0.03437931 0 0 Z M7.27880859 98.4855957 C5.1236565 101.51549229 4.43153397 103.67233831 3.6640625 107.29296875 C3.38892822 108.55681396 3.11379395 109.82065918 2.83032227 111.12280273 C2.53241195 112.56097245 2.23481984 113.9992081 1.9375 115.4375 C1.60131448 117.01334487 1.26394136 118.58893674 0.92553711 120.16430664 C0.14961193 123.78954157 -0.6168897 127.41663627 -1.37841797 131.04492188 C-2.54142589 136.57563603 -3.72983119 142.10064813 -4.92300415 147.62492371 C-11.81451704 179.53962696 -18.44357819 211.5083524 -24.90310669 243.51321411 C-25.67190532 247.32188994 -26.44493053 251.12966869 -27.22164917 254.93673706 C-28.1408637 259.44464296 -29.05016623 263.95444044 -29.95202827 268.46584892 C-30.28648034 270.13127768 -30.62414712 271.79606468 -30.96531487 273.46013069 C-34.54529755 287.76434867 -34.54529755 287.76434867 -32 301.6875 C-28.35366794 305.72803012 -25.6930627 307.40438768 -20.25 307.6875 C-15.73471696 307.5222151 -13.12534961 306.2785818 -9.6875 303.25 C-6.41243801 298.8364218 -5.59719294 294.22837576 -4.55859375 288.94921875 C-4.368311 288.02253387 -4.17802826 287.095849 -3.98197937 286.14108276 C-3.3543453 283.07491316 -2.73984386 280.00625758 -2.125 276.9375 C-1.68248458 274.76598927 -1.23894505 272.594687 -0.79443359 270.42358398 C0.12723851 265.91763835 1.04450495 261.41083004 1.95849609 256.90332031 C3.80022836 247.83453948 5.68910597 238.77568569 7.58111572 229.71728516 C8.19309018 226.78572116 8.80351452 223.85383801 9.41357422 220.921875 C11.97123957 208.63611673 14.55285879 196.35554276 17.1476593 184.07757568 C19.19046049 174.41022369 21.22394498 164.74094407 23.25028992 155.07012939 C24.5277217 148.97600883 25.81486598 142.88413159 27.11485291 136.79478455 C27.80714772 133.53776949 28.48750648 130.27836149 29.16372681 127.01797485 C29.46512412 125.57691084 29.77153232 124.1368833 30.08358765 122.6980896 C33.08845987 109.65733412 33.08845987 109.65733412 29.5 97.25 C25.34513029 93.45126198 21.98807719 92.85584552 16.4921875 93 C12.25945819 93.48547433 10.06749588 95.42004835 7.27880859 98.4855957 Z M-105.94628906 126.25 C-106.64620972 126.94641602 -107.34613037 127.64283203 -108.06726074 128.36035156 C-110.36758826 130.65191293 -112.66056562 132.95066907 -114.953125 135.25 C-116.55372378 136.84925097 -118.1546193 138.44820499 -119.75579834 140.046875 C-123.10445847 143.39259106 -126.4494855 146.74188673 -129.79199219 150.09375 C-134.07818844 154.39135872 -138.37332524 158.67990207 -142.67120743 162.96582031 C-145.97588746 166.26327822 -149.2757952 169.56547875 -152.57427216 172.86914062 C-154.15646272 174.45266575 -155.7401414 176.03470544 -157.32532501 177.61523438 C-159.53718615 179.82202262 -161.74254505 182.03510979 -163.94628906 184.25 C-164.60292542 184.90258789 -165.25956177 185.55517578 -165.93609619 186.22753906 C-166.53599365 186.83307617 -167.13589111 187.43861328 -167.75396729 188.0625 C-168.27528355 188.58457031 -168.79659981 189.10664063 -169.33371353 189.64453125 C-172.35686306 193.22971415 -172.93644172 196.28348798 -173.1484375 200.95703125 C-171.76572961 207.83541713 -166.63177803 212.74362087 -161.84277344 217.4987793 C-161.16253616 218.18587982 -160.48229889 218.87298035 -159.78144836 219.5809021 C-157.54418516 221.83637634 -155.29610571 224.08068324 -153.046875 226.32421875 C-151.47955362 227.89610445 -149.91260374 229.46836065 -148.3460083 231.04096985 C-145.06592452 234.32997346 -141.78024192 237.61325662 -138.49072266 240.89282227 C-134.28468874 245.08736512 -130.09472145 249.29755432 -125.9090538 253.51240826 C-122.67838167 256.7614622 -119.43841068 260.00111692 -116.19568634 263.2381382 C-114.64732615 264.78634544 -113.1020503 266.33764394 -111.55998993 267.89212608 C-109.39941948 270.06764198 -107.22639206 272.22992879 -105.04980469 274.3894043 C-104.42094864 275.02792831 -103.79209259 275.66645233 -103.1441803 276.32432556 C-98.22954746 281.15875687 -93.18363078 285.25 -86.0625 285.25 C-80.97533748 283.74269259 -77.78172531 281.89133796 -74.8125 277.4375 C-73.49222062 273.69670843 -73.19472862 271.19217103 -73.6875 267.25 C-76.41684819 262.58352523 -79.71789083 258.95054738 -83.54174805 255.20043945 C-84.11618652 254.62892151 -84.690625 254.05740356 -85.2824707 253.46856689 C-86.52155745 252.23705101 -87.76294802 251.00784958 -89.00641441 249.780756 C-90.97348545 247.83933093 -92.93413592 245.89162182 -94.89326477 243.94218445 C-99.048258 239.80997614 -103.2110646 235.68569474 -107.375 231.5625 C-112.21149109 226.7731996 -117.04473028 221.98071062 -121.86963844 217.179739 C-123.80282939 215.25952701 -125.74193653 213.34542712 -127.68132019 211.43147278 C-128.86165239 210.258403 -130.04170619 209.08505299 -131.22143555 207.91137695 C-131.76324966 207.37989548 -132.30506378 206.848414 -132.86329651 206.30082703 C-135.208553 203.95624257 -136.62274769 202.44425694 -137.6875 199.25 C-136.69844055 197.65252686 -136.69844055 197.65252686 -135.0402832 195.85449219 C-134.06087265 194.7921637 -134.06087265 194.7921637 -133.06167603 193.70837402 C-128.70381444 189.19596483 -124.28059941 184.75386148 -119.82274437 180.34064484 C-118.00835662 178.54384845 -116.19770763 176.74335869 -114.38801575 174.9418335 C-109.2480783 169.82618857 -104.10235756 164.71638923 -98.95239258 159.61083984 C-95.7889202 156.4741409 -92.63032977 153.33259415 -89.47469521 150.18801117 C-88.27529619 148.99481273 -87.07400392 147.80351421 -85.87077904 146.61417389 C-84.19337164 144.95597624 -82.52220956 143.29171482 -80.85229492 141.62597656 C-80.10814079 140.89496483 -80.10814079 140.89496483 -79.34895325 140.14918518 C-75.6985297 136.48830787 -73.85350603 134.04286511 -73.375 128.875 C-73.81543974 123.76589906 -75.41349866 120.76287659 -78.6875 116.875 C-90.06889295 110.71007882 -98.25536084 118.5110617 -105.94628906 126.25 Z M81.3125 117.25 C77.28968681 121.4791113 76.85286108 125.10183607 76.78125 130.6875 C78.04774056 136.79645445 82.97978122 141.20082159 87.27441406 145.43896484 C87.8602124 146.02505524 88.44601074 146.61114563 89.04956055 147.21499634 C90.9710423 149.13509396 92.89949185 151.04802551 94.828125 152.9609375 C96.1680598 154.29713891 97.50755131 155.63378499 98.84661865 156.97085571 C102.36029556 160.47692185 105.87993851 163.97693827 109.40087891 167.47570801 C112.99745399 171.05176953 116.58832507 174.63354865 120.1796875 178.21484375 C127.21840301 185.23215445 134.26343766 192.24308409 141.3125 199.25 C137.13027647 205.60459054 132.47907524 210.42819209 126.71044922 215.35083008 C121.66028911 219.75470852 116.9347133 224.46572396 112.1953125 229.19921875 C111.24753702 230.14377241 110.2996902 231.0882545 109.35177612 232.03266907 C107.38184163 233.99666482 105.41393433 235.96266594 103.44726562 237.92993164 C100.93058727 240.44671235 98.40705158 242.95649701 95.88177681 245.46464825 C93.4609617 247.87168032 91.04733896 250.28587861 88.6328125 252.69921875 C87.727659 253.59718674 86.82250549 254.49515472 85.8899231 255.42033386 C84.63754349 256.67732841 84.63754349 256.67732841 83.35986328 257.9597168 C82.62454376 258.6936113 81.88922424 259.4275058 81.13162231 260.18363953 C77.26422076 264.57666227 76.92848192 268.14798174 77.0625 273.84375 C77.39447823 277.03904044 78.19144365 278.83638416 80.3125 281.25 C84.11062824 284.20409974 87.51269272 285.16864733 92.3125 285.25 C98.74480609 283.08616991 103.28431408 278.8674541 107.98193359 274.14575195 C108.70165344 273.43786026 109.42137329 272.72996857 110.16290283 272.00062561 C112.52273669 269.67350731 114.86748522 267.33188752 117.2109375 264.98828125 C118.85344659 263.35609415 120.49632555 261.72427918 122.13955688 260.09281921 C125.57415307 256.67761823 129.00068462 253.2545567 132.42236328 249.82641602 C136.80198009 245.44079444 141.20622676 241.08085844 145.61752892 236.72713947 C149.01485838 233.36681821 152.39600287 229.99056666 155.77278519 226.6096096 C157.38991407 224.99534863 159.01263563 223.38666969 160.64106369 221.78380775 C162.9175976 219.53929743 165.17071524 217.2735528 167.41943359 215.0012207 C168.09162933 214.34790771 168.76382507 213.69459473 169.45639038 213.02148438 C173.77807763 208.59135079 176.22093983 204.57434185 176.3125 198.25 C174.66855442 191.93634272 170.73791402 188.08229228 166.24584961 183.60229492 C165.17201019 182.50830383 165.17201019 182.50830383 164.07647705 181.39221191 C161.71644442 178.99431096 159.34172777 176.61165945 156.96484375 174.23046875 C155.31127428 172.56403874 153.6580042 170.8973116 152.00502014 169.2303009 C148.54112909 165.74248851 145.069098 162.26301478 141.59204102 158.78833008 C137.14529088 154.34198658 132.7267026 149.86875763 128.31473446 145.38793468 C124.90968838 141.93834614 121.4865466 138.50716064 118.05810738 135.08083534 C116.42144885 133.43946698 114.79124855 131.79163178 113.167799 130.13719749 C110.89212467 127.82218533 108.59231008 125.5340684 106.28491211 123.25073242 C105.62427261 122.5676149 104.96363312 121.88449738 104.28297424 121.18067932 C97.6394628 114.71120267 89.49531865 112.01299606 81.3125 117.25 Z " fill="#000000" transform="translate(248.6875,49.75)"/>
<path d="M0 0 C0 3 0 3 -1.94018555 5.28076172 C-2.8300415 6.15490723 -3.71989746 7.02905273 -4.63671875 7.9296875 C-5.11317337 8.40189728 -5.58962799 8.87410706 -6.08052063 9.36062622 C-7.60928867 10.87259667 -9.14811233 12.37385052 -10.6875 13.875 C-11.70576379 14.87821077 -12.72335007 15.88210972 -13.74023438 16.88671875 C-15.62696157 18.74898635 -17.51819114 20.60619733 -19.4128418 22.46044922 C-21.19517328 24.20998324 -22.93714638 26.00127284 -24.64379883 27.82470703 C-27 30 -27 30 -30 30 C-20.1 20.1 -10.2 10.2 0 0 Z " fill="#0B1114" transform="translate(422,257)"/>
</svg>
